<svg width="150" height="150" viewBox="0 0 150 150" xmlns="http://www.w3.org/2000/svg" preserveAspectRatio="xMidYMid"><path d="M44.41 69.111c-2.238-2.391-5.725-2.256-7.246.786L.463 143.3a4.388 4.388 0 0 0 3.924 6.35h51.11a4.23 4.23 0 0 0 3.925-2.426c11.02-22.787 4.344-57.432-15.013-78.114ZM71.341 2.35c-20.527 32.522-19.172 68.542-5.652 95.584l24.645 49.29a4.388 4.388 0 0 0 3.924 2.426h51.11a4.388 4.388 0 0 0 3.924-6.35S80.534 5.764 78.804 2.323c-1.547-3.081-5.475-3.123-7.463.028Z" fill="#8716EA"/></svg>