<?xml version="1.0" encoding="iso-8859-1"?>
<!-- Generator: Adobe Illustrator 16.0.0, SVG Export Plug-In . SVG Version: 6.00 Build 0)  -->
<!DOCTYPE svg PUBLIC "-//W3C//DTD SVG 1.1//EN" "http://www.w3.org/Graphics/SVG/1.1/DTD/svg11.dtd">
<svg version="1.1" id="Capa_1" xmlns="http://www.w3.org/2000/svg" xmlns:xlink="http://www.w3.org/1999/xlink" x="0px" y="0px"
	 width="385.395px" height="385.394px" viewBox="0 0 385.395 385.394" style="enable-background:new 0 0 385.395 385.394;"
	 xml:space="preserve">
<g>
	<g>
		<path d="M161.688,279.582c0,18.062,13.195,31.691,30.694,31.691c18.179,0,31.372-13.36,31.372-31.823
			c-0.452-18.865-12.918-31.529-31.049-31.529C174.448,247.916,161.688,260.93,161.688,279.582z M211.896,279.582
			c0,11.867-7.841,19.84-19.525,19.84c-10.91,0-18.839-8.344-18.839-19.84c0-12.035,7.528-19.819,19.164-19.819
			C204.427,259.762,211.602,267.186,211.896,279.582z"/>
		<path d="M274.218,285.756c1.229,3.804,4.753,6.357,8.745,6.357c0.954,0,1.894-0.157,2.828-0.441
			c4.809-1.564,7.465-6.765,5.926-11.593c-1.234-3.743-2.656-7.409-4.261-10.897c-12.593-27.549-36.424-47.83-64.556-56.401
			c-4.175-1.27-7.774,1.519-7.942,5.88l-0.116,3.001c-0.168,4.362,3.128,8.771,7.226,10.263
			c21.206,7.755,38.988,23.699,48.683,44.895C272.07,279.75,273.243,282.75,274.218,285.756z"/>
		<path d="M167.434,132.178l0.686,16.985c0.183,4.359-3.177,8.412-7.45,9.298c-49.952,10.324-92.455,44.442-112.875,92.729
			c-1.958,4.656,0.213,10.054,4.908,12.05c4.565,1.884,10.103-0.392,12.03-4.9c17.625-41.68,53.902-71.354,96.712-81.187
			c4.25-0.98,7.891,1.982,8.066,6.342l0.79,19.317c0.18,4.356-3.143,8.606-7.33,9.856c-31.671,9.419-57.704,33.545-68.801,65.912
			c-0.808,2.315-0.65,4.809,0.434,7.012c1.066,2.204,2.93,3.859,5.261,4.662c4.692,1.615,10.072-1.016,11.685-5.708
			c8.627-25.141,28.195-44.265,52.29-52.861c4.108-1.468,7.592-1.239,7.647,0.081l0.094,2.382c0.142,3.184,2.75,5.683,5.926,5.683
			h30.709c3.188,0,5.794-2.499,5.921-5.698l1.955-50.543c0.162-4.359,3.788-7.307,8.038-6.312
			c37.125,8.676,69.741,32.375,89.113,66.204c2.768,4.804,5.261,9.867,7.449,15.046c1.453,3.413,4.773,5.611,8.471,5.611
			c1.213,0,2.406-0.238,3.564-0.721c2.265-0.955,4.027-2.737,4.951-5.013c0.924-2.27,0.909-4.772-0.046-7.037
			c-2.468-5.825-5.327-11.562-8.455-17.027c-22.521-39.344-60.854-66.597-104.296-75.737c-4.276-0.901-7.633-4.969-7.465-9.331
			l0.655-17.087c0.167-4.359,3.808-7.426,8.104-6.652c59.996,10.839,112.38,50.259,138.664,106.579c1,2.147,1.975,4.311,2.884,6.525
			c1.452,3.422,4.778,5.615,8.466,5.615c1.218,0,2.427-0.238,3.579-0.716c2.265-0.959,4.012-2.736,4.951-5.001
			c0.909-2.275,0.909-4.773-0.061-7.059c-1.006-2.392-2.072-4.764-3.144-7.13c-29.214-62.545-87.777-106.066-154.604-117.309
			c-4.307-0.727-7.734-3.356-7.622-6.065l0.188-4.908c0.213-5.845-1.863-11.359-5.845-15.5c-3.996-4.154-9.425-6.444-15.279-6.444
			h-11.329c-5.848,0-11.281,2.29-15.28,6.444c-3.981,4.164-6.05,9.671-5.799,15.5c0,0,0.089,2.196,0.198,4.897
			c0.112,2.712-3.309,5.327-7.614,6.038C88.788,118.51,28.906,164.695,0.718,231.315c-1.96,4.662,0.229,10.065,4.905,12.045
			c4.613,1.935,10.136-0.386,12.032-4.89c25.416-60.014,79.039-101.862,141.648-112.96
			C163.6,124.744,167.258,127.824,167.434,132.178z M187.04,85.986h11.329c2.605,0,4.987,0.996,6.729,2.813
			c1.747,1.8,2.641,4.225,2.549,6.817l-4.804,124.471c-0.167,4.362-3.839,7.892-8.211,7.892h-3.514
			c-4.362,0-8.044-3.529-8.224-7.892l-5.081-124.494c-0.111-2.584,0.79-5.009,2.511-6.812
			C182.055,86.981,184.45,85.986,187.04,85.986z"/>
	</g>
</g>
<g>
</g>
<g>
</g>
<g>
</g>
<g>
</g>
<g>
</g>
<g>
</g>
<g>
</g>
<g>
</g>
<g>
</g>
<g>
</g>
<g>
</g>
<g>
</g>
<g>
</g>
<g>
</g>
<g>
</g>
</svg>
